<svg xmlns="http://www.w3.org/2000/svg" version="1.1" viewBox="-5.0 -10.0 110.0 135.0">
 <path d="m64.082 76.066c-9.0391-6.2812-2.0078-19.539 11.473-21.305 2.9648-0.38672 4.5977-0.074219 7.4336 0.30469v-32.324l-43.004 11.48v45.145c0 10.785-16.602 19.883-26.824 12.781-9.0469-6.2852-2-19.543 11.473-21.301 2.9688-0.38672 4.5938-0.074218 7.4336 0.30469v-46.078c0-3.2031 2.0859-5.9141 5.1797-6.7383l48.102-12.84c0.65625-0.17578 1.332-0.21875 2-0.085938h-0.015625c1.9375 0.38281 3.5195 2.1289 3.5664 4.1172l-0.007813 54.086c-0.37109 10.73-16.75 19.445-26.809 12.453z" fill-rule="evenodd"/>
</svg>
